<svg width="24" height="24" viewBox="0 0 24 24" fill="none" xmlns="http://www.w3.org/2000/svg">
<path fill-rule="evenodd" clip-rule="evenodd" d="M7 4C7 3.44772 7.44772 3 8 3C8.55228 3 9 3.44772 9 4V5H11V4C11 3.44772 11.4477 3 12 3C12.5523 3 13 3.44772 13 4V5H15V4C15 3.44772 15.4477 3 16 3C16.5523 3 17 3.44772 17 4V5H18C18.5523 5 19 5.44772 19 6V7H20C20.5523 7 21 7.44772 21 8C21 8.55228 20.5523 9 20 9H19V11H20C20.5523 11 21 11.4477 21 12C21 12.5523 20.5523 13 20 13H19V15H20C20.5523 15 21 15.4477 21 16C21 16.5523 20.5523 17 20 17H19V18C19 18.5523 18.5523 19 18 19H17V20C17 20.5523 16.5523 21 16 21C15.4477 21 15 20.5523 15 20V19H13V20C13 20.5523 12.5523 21 12 21C11.4477 21 11 20.5523 11 20V19H9V20C9 20.5523 8.55228 21 8 21C7.44772 21 7 20.5523 7 20V19H6C5.44772 19 5 18.5523 5 18V17H4C3.44772 17 3 16.5523 3 16C3 15.4477 3.44772 15 4 15H5V13H4C3.44772 13 3 12.5523 3 12C3 11.4477 3.44772 11 4 11H5V9H4C3.44772 9 3 8.55228 3 8C3 7.44772 3.44772 7 4 7H5V6C5 5.44772 5.44772 5 6 5H7V4ZM7 8C7 7.44772 7.44772 7 8 7H16C16.5523 7 17 7.44772 17 8V16C17 16.5523 16.5523 17 16 17H8C7.44772 17 7 16.5523 7 16V8ZM10 9C9.44772 9 9 9.44772 9 10V14C9 14.5523 9.44772 15 10 15H14C14.5523 15 15 14.5523 15 14V10C15 9.44772 14.5523 9 14 9H10Z" fill="#C4C4C4"/>
</svg>
