<svg width="24" height="24" viewBox="0 0 24 24" fill="none" xmlns="http://www.w3.org/2000/svg">
<path fill-rule="evenodd" clip-rule="evenodd" d="M10.6597 20.2972C11.4197 20.9972 12.5897 20.9972 13.3497 20.3072L13.4497 20.2172L13.5101 20.1623C16.8226 17.1527 19.4081 14.8036 20.8181 12.5H16.118L13.6405 17.4552C13.1392 18.4576 11.6594 18.2867 11.3998 17.1965L9.71237 10.1094L9.04578 11.6092C8.80503 12.1509 8.26785 12.5 7.67506 12.5H3.18619C4.60461 14.8156 7.20859 17.1743 10.5497 20.1972L10.6597 20.2972ZM2.26785 10.5C2.06899 9.83474 1.97617 9.15855 1.99966 8.4572C2.05966 6.7572 2.92966 5.1272 4.33966 4.1672C6.97966 2.3672 10.2397 3.2072 11.9997 5.2672C13.7597 3.2072 17.0197 2.3572 19.6597 4.1672C21.0697 5.1272 21.9397 6.7572 21.9997 8.4572C22.025 9.1585 21.9333 9.83466 21.7352 10.5H15.809C15.2409 10.5 14.7215 10.821 14.4674 11.3292L12.8357 14.5925L11.1098 7.34393C10.8439 6.22707 9.31218 6.08539 8.8459 7.13451L7.35013 10.5H2.26785Z" fill="black"/>
</svg>
