<svg width="1200" height="1200" viewBox="0 0 1200 1200" fill="none" xmlns="http://www.w3.org/2000/svg">
<path fill-rule="evenodd" clip-rule="evenodd" d="M667.1 972V1134.7C588.8 1098.1 509.4 1057.9 429.9 1014.2C350.4 970.7 274.3 925.6 202 879.5C198.3 827.9 195.8 775.5 194.4 722C278.2 774.4 476 893.4 667.1 972Z" fill="white"/>
<path fill-rule="evenodd" clip-rule="evenodd" d="M667.1 778.6V941.3C586.4 904.7 504.6 864.5 422.5 820.8C343 778.5 266.6 734.7 193.7 689.9C193.4 668 193.1 646 193.1 623.8C193.1 591.8 193.5 560 194.4 528.6C278.1 581 475.8 699.9 667.1 778.6Z" fill="white"/>
<path fill-rule="evenodd" clip-rule="evenodd" d="M203.4 337.9C353.6 421.3 509 507.4 667.1 574.8V743.2C586.4 705.3 504.6 663.7 422.5 618.5C343.6 575 267.6 529.9 195.3 483.9C196.8 438.6 200.5 381.7 203.4 337.9Z" fill="white"/>
<path fill-rule="evenodd" clip-rule="evenodd" d="M667.1 972V1134.7C745.6 1098.1 824.9 1057.9 904.4 1014.2C983.7 970.7 1060 925.6 1132.3 879.5C1136 827.9 1138.5 775.5 1139.9 722C1056.2 774.4 858.5 893.4 667.1 972Z" fill="white"/>
<path fill-rule="evenodd" clip-rule="evenodd" d="M667.1 778.6V941.3C747.9 904.7 829.8 864.5 911.8 820.8C991.4 778.5 1067.8 734.7 1140.6 689.9C1141 668 1141.2 646 1141.2 623.8C1141.2 591.8 1140.9 560 1140 528.6C1056.4 581 858.5 699.9 667.1 778.6Z" fill="white"/>
<path fill-rule="evenodd" clip-rule="evenodd" d="M1131 328C980.8 411.3 825.4 507.4 667.1 574.9V743.3C747.9 705.4 829.8 663.8 911.8 618.6C990.8 575.1 1066.8 530 1139.1 484C1137.6 438.6 1134 371.9 1131 328Z" fill="white"/>
<path fill-rule="evenodd" clip-rule="evenodd" d="M1108.8 400.5L1096.1 408.6L1097.5 450.4L1110.3 442.1L1108.8 400.5Z" fill="#231F20"/>
<path fill-rule="evenodd" clip-rule="evenodd" d="M1089.3 412.9L1076.4 421L1078 462.7L1090.8 454.5L1089.3 412.9Z" fill="#231F20"/>
<path fill-rule="evenodd" clip-rule="evenodd" d="M1069.8 425.2L1056.8 433.3L1058.4 475L1071.2 466.8L1069.8 425.2Z" fill="#231F20"/>
<path fill-rule="evenodd" clip-rule="evenodd" d="M1108.8 604.9L1096.1 613.2L1097.5 654.8L1110.3 646.7L1108.8 604.9Z" fill="#231F20"/>
<path fill-rule="evenodd" clip-rule="evenodd" d="M1089.3 617.3L1076.4 625.4L1078 667.1L1090.8 659L1089.3 617.3Z" fill="#231F20"/>
<path fill-rule="evenodd" clip-rule="evenodd" d="M1069.8 629.6L1056.8 637.7L1058.4 679.4L1071.2 671.4L1069.8 629.6Z" fill="#231F20"/>
<path fill-rule="evenodd" clip-rule="evenodd" d="M1111 799.1L1097.7 806.5L1096.8 848.1L1110 840.8L1111 799.1Z" fill="#231F20"/>
<path fill-rule="evenodd" clip-rule="evenodd" d="M1090.8 810.4L1077.4 817.7L1076.5 859.4L1089.9 851.9L1090.8 810.4Z" fill="#231F20"/>
<path fill-rule="evenodd" clip-rule="evenodd" d="M1070.5 821.5L1057.1 828.9L1056.2 870.6L1069.6 863.1L1070.5 821.5Z" fill="#231F20"/>
<path d="M996.7 500.5C954.8 524.2 807.7 606.7 749.7 631.7V614.8C821.5 581.9 989.8 486.2 996.7 482.3V500.5Z" fill="#231F20"/>
<path d="M1005 702.9C963.1 726 816 806.5 758 830.6V813.7C829.9 782 998.1 688.5 1005 684.7V702.9Z" fill="#231F20"/>
<path d="M1005 892.9C963.1 916.1 816 996.6 758 1020.7V1003.8C829.9 971.9 998.1 878.6 1005 874.8V892.9Z" fill="#231F20"/>
<path d="M164 314.7C267.6 245 444.5 278.5 518.7 369.2L622.3 200.7C509.9 119.4 313.7 83.6 189.1 146.3C88.7999 196.9 -27.1001 331.8 23.9999 533.7C42.4999 440.4 59.8999 384.8 164 314.7Z" fill="white"/>
<path fill-rule="evenodd" clip-rule="evenodd" d="M833.8 293.1C831.7 229.2 796.8 168.2 736.5 135.7C646.6 87.1001 534.2 120.7 485.7 210.8C437.2 300.7 470.7 413 560.8 461.6C630.4 499.1 713.5 487.5 769.9 438.5L621.3 370.5L617 324.8L612.7 279.3L650.2 252.7L687.5 226.1L833.8 293.1Z" fill="white"/>
</svg>
