<svg width="19" height="19" viewBox="0 0 19 19" fill="none" xmlns="http://www.w3.org/2000/svg">
<path d="M9.5 0C4.25281 0 0 4.24893 0 9.49612C0 14.7433 4.25281 19 9.5 19C14.7472 19 18.9961 14.7433 18.9961 9.49612C18.9961 4.24893 14.7453 0 9.5 0ZM9.50388 16.8503C5.44297 16.8503 2.14579 13.557 2.14579 9.49419C2.14579 5.43522 5.44103 2.14772 9.50388 2.14772C13.559 2.14772 16.8503 5.43522 16.8503 9.49419C16.8484 13.559 13.559 16.8503 9.50388 16.8503Z" fill="#C4C4C4"/>
<path d="M8.67811 12.3203H10.4808V10.9111C10.4808 10.5312 10.6591 10.1746 11.136 9.86054C11.607 9.54846 12.9329 8.91849 12.9329 7.26117C12.9329 5.59998 11.5411 4.45634 10.3742 4.21404C9.20147 3.97174 7.93377 4.13069 7.03824 5.11538C6.23187 5.99347 6.06323 6.69516 6.06323 8.23424H7.86593V7.8737C7.86593 7.05764 7.96091 6.18925 9.13363 5.95276C9.77329 5.82289 10.3742 6.02642 10.7289 6.37145C11.1379 6.77076 11.1379 7.66435 10.4905 8.11406L9.47284 8.80218C8.8797 9.18598 8.68005 9.60855 8.68005 10.2308V12.3203H8.67811Z" fill="#C4C4C4"/>
<path d="M9.58141 13.0259C10.0912 13.0259 10.508 13.4407 10.508 13.9544C10.508 14.4681 10.0912 14.8809 9.58141 14.8809C9.0658 14.8809 8.64517 14.4661 8.64517 13.9544C8.64711 13.4407 9.0658 13.0259 9.58141 13.0259Z" fill="#C4C4C4"/>
</svg>
