<svg width="24" height="24" viewBox="0 0 24 24" fill="none" xmlns="http://www.w3.org/2000/svg">
<path fill-rule="evenodd" clip-rule="evenodd" d="M20 14C20 15.7301 19.4508 17.332 18.5172 18.6408C19.2536 18.7998 19.9345 18.9851 20.5479 19.1926C21.4693 17.6791 22 15.9015 22 14C22 12.4719 21.6573 11.0239 21.0444 9.72857L19.6208 11.559C19.867 12.3285 20 13.1487 20 14ZM17.2339 7.94955C15.831 6.73489 14.0013 6 12 6C7.58172 6 4 9.58172 4 14C4 15.7301 4.54922 17.332 5.48283 18.6408C4.74636 18.7998 4.0655 18.9851 3.45213 19.1926C2.53073 17.6791 2 15.9015 2 14C2 8.47715 6.47715 4 12 4C14.6574 4 17.0726 5.03652 18.8636 6.72732L20.2252 5.70611C20.3829 5.58785 20.6035 5.60353 20.7429 5.74291C20.8883 5.88831 20.8983 6.12082 20.7658 6.27811L14.903 13.2402C14.9663 13.4829 15 13.7375 15 14C15 15.6569 13.6569 17 12 17C10.3431 17 9 15.6569 9 14C9 12.3431 10.3431 11 12 11C12.3351 11 12.6574 11.0549 12.9583 11.1563L17.2339 7.94955Z" fill="#C4C4C4"/>
</svg>
