<svg width="24" height="24" viewBox="0 0 24 24" fill="none" xmlns="http://www.w3.org/2000/svg">
<path fill-rule="evenodd" clip-rule="evenodd" d="M11.5097 4.42312C11.8142 4.25189 12.1858 4.25189 12.4903 4.42312L18.4903 7.79812C18.8051 7.97524 19 8.30842 19 8.6697V15.3303C19 15.6916 18.8051 16.0248 18.4903 16.2019L12.4903 19.5769C12.1858 19.7481 11.8142 19.7481 11.5097 19.5769L5.50974 16.2019C5.19486 16.0248 5 15.6916 5 15.3303V8.6697C5 8.30842 5.19486 7.97524 5.50974 7.79812L11.5097 4.42312ZM13.4708 2.67997C12.5575 2.16627 11.4425 2.16627 10.5292 2.67997L4.52922 6.05497C3.58459 6.58633 3 7.58588 3 8.6697V15.3303C3 16.4141 3.58459 17.4137 4.52922 17.945L10.5292 21.32C11.4425 21.8337 12.5575 21.8337 13.4708 21.32L19.4708 17.945C20.4154 17.4137 21 16.4141 21 15.3303V8.6697C21 7.58588 20.4154 6.58632 19.4708 6.05497L13.4708 2.67997ZM6 14.9087V9.09129C6 8.72659 6.19853 8.39082 6.51808 8.21507L11.5181 5.46507C11.8182 5.30002 12.1818 5.30002 12.4819 5.46507L17.4819 8.21507C17.8015 8.39082 18 8.72659 18 9.09128V14.9087C18 15.2734 17.8015 15.6092 17.4819 15.785L12.4819 18.5349C12.1818 18.7 11.8182 18.7 11.5181 18.5349L6.51808 15.785C6.19853 15.6092 6 15.2734 6 14.9087Z" fill="#C4C4C4"/>
</svg>
