<svg width="24" height="24" viewBox="0 0 24 24" fill="none" xmlns="http://www.w3.org/2000/svg">
<path fill-rule="evenodd" clip-rule="evenodd" d="M4 7L20 7V15L8.50141 15H8.5H8.49859H4L4 7ZM8.49905 17C7.73935 17.0004 7.36466 17.5141 7.17985 18.0207C6.99058 18.5395 6.55228 19 6 19H3C2.44772 19 2 18.5523 2 18V6C2 5.44771 2.44772 5 3 5H21C21.5523 5 22 5.44772 22 6V18C22 18.5523 21.5523 19 21 19L11 19C10.4477 19 10.0094 18.5395 9.82015 18.0207C9.63534 17.5141 9.26065 17.0004 8.50095 17H8.5H8.49905ZM6 9.5C6 9.22386 6.22386 9 6.5 9H10.5C10.7761 9 11 9.22386 11 9.5V12.5C11 12.7761 10.7761 13 10.5 13H6.5C6.22386 13 6 12.7761 6 12.5V9.5ZM13.5 9C13.2239 9 13 9.22386 13 9.5V12.5C13 12.7761 13.2239 13 13.5 13H17.5C17.7761 13 18 12.7761 18 12.5V9.5C18 9.22386 17.7761 9 17.5 9H13.5Z" fill="black"/>
</svg>
