<svg width="24" height="24" viewBox="0 0 24 24" fill="none" xmlns="http://www.w3.org/2000/svg">
<path fill-rule="evenodd" clip-rule="evenodd" d="M18 2H6C3.79086 2 2 3.79086 2 6V18C2 20.2091 3.79086 22 6 22H18C20.2091 22 22 20.2091 22 18V6C22 3.79086 20.2091 2 18 2ZM4 6C4 4.89543 4.89543 4 6 4H18C19.1046 4 20 4.89543 20 6V18C20 19.1046 19.1046 20 18 20H6C4.89543 20 4 19.1046 4 18V6ZM8 6C7.44772 6 7 6.44771 7 7V17C7 17.5523 7.44772 18 8 18C8.55228 18 9 17.5523 9 17V7C9 6.44772 8.55228 6 8 6ZM11 7C11 6.44771 11.4477 6 12 6C12.5523 6 13 6.44772 13 7V17C13 17.5523 12.5523 18 12 18C11.4477 18 11 17.5523 11 17V7ZM16 6C15.4477 6 15 6.44771 15 7V17C15 17.5523 15.4477 18 16 18C16.5523 18 17 17.5523 17 17V7C17 6.44772 16.5523 6 16 6Z" fill="black"/>
</svg>
