<svg width="24" height="24" viewBox="0 0 24 24" fill="none" xmlns="http://www.w3.org/2000/svg">
<path fill-rule="evenodd" clip-rule="evenodd" d="M2 7C2 6.44772 2.44772 6 3 6H21C21.5523 6 22 6.44772 22 7V8C22 8.55228 21.5523 9 21 9H3C2.44772 9 2 8.55228 2 8V7ZM2 12C2 11.4477 2.44772 11 3 11H6V14H3C2.44772 14 2 13.5523 2 13V12ZM21 11H8V14H21C21.5523 14 22 13.5523 22 13V12C22 11.4477 21.5523 11 21 11ZM8 17C8 16.4477 8.44772 16 9 16H15V19H9C8.44772 19 8 18.5523 8 18V17ZM21 16H17V19H21C21.5523 19 22 18.5523 22 18V17C22 16.4477 21.5523 16 21 16Z" fill="black"/>
</svg>
